<?xml version="1.0" encoding="iso-8859-1"?>
<!-- Generator: Adobe Illustrator 19.0.0, SVG Export Plug-In . SVG Version: 6.00 Build 0)  -->
<svg version="1.1" id="Layer_1" xmlns="http://www.w3.org/2000/svg" xmlns:xlink="http://www.w3.org/1999/xlink" x="0px" y="0px"
	 viewBox="0 0 512.001 512.001" style="enable-background:new 0 0 512.001 512.001;" xml:space="preserve">
<path style="fill:#FFC72D;" d="M129.057,66.945L3.514,207.394c-4.752,5.317-4.675,13.378,0.177,18.603l54.837,59.053
	c5.21,5.61,13.99,5.913,19.572,0.673l50.957-47.829h12.309V66.945H129.057z"/>
<path style="fill:#FFE49C;" d="M255.995,66.945H129.057v364.3c0,7.628,6.183,13.811,13.811,13.811h113.128H369.13
	c7.628,0,13.811-6.183,13.811-13.811v-364.3H255.995z"/>
<path style="fill:#FFBE0D;" d="M508.306,226.002l-54.831,59.044c-5.207,5.621-13.991,5.911-19.571,0.677l-50.964-47.829h-12.306
	V66.95h12.306l125.545,140.448C513.236,212.716,513.167,220.768,508.306,226.002z"/>
<path style="fill:#FFC72D;" d="M255.995,66.945v378.111H369.13c7.628,0,13.811-6.183,13.811-13.811v-364.3H255.995z"/>
<path style="fill:#5AC2AD;" d="M221.16,66.945h-57.39l77.266,80.622c3.907,4.077,9.31,6.382,14.958,6.382h0.001v-50.657
	L221.16,66.945z"/>
<path style="fill:#1DA49C;" d="M348.228,66.945h-57.395l-34.839,36.349v50.657c5.646,0,11.048-2.305,14.955-6.381L348.228,66.945z"
	/>
<rect x="129.054" y="362.811" style="fill:#5AC2AD;" width="126.94" height="41.434"/>
<rect x="255.994" y="362.811" style="fill:#1DA49C;" width="126.94" height="41.434"/>
<g>
	<path style="fill:#5AC2AD;" d="M197.872,228.872l7.371-4.572v70.924c0,4.195,3.402,7.596,7.596,7.596s7.596-3.402,7.596-7.596
		v-84.571c0-5.951-6.549-9.585-11.599-6.457l-18.97,11.763c-3.565,2.213-4.664,6.893-2.453,10.459
		C189.625,229.985,194.308,231.079,197.872,228.872z"/>
	<path style="fill:#5AC2AD;" d="M301.609,287.148c12.568-18.703,12.774-48.663,0-67.674c-13.683-20.848-38.713-21.049-52.525,0
		c-12.919,18.789-12.658,49.265,0,67.674C263.118,308.206,287.723,307.978,301.609,287.148z M261.966,228.11
		c7.987-11.18,18.346-11.976,26.616,0c9.156,14.061,8.941,36.85,0,50.261c-7.936,11.769-18.504,11.628-26.616,0
		C253.008,264.935,252.826,242.149,261.966,228.11z"/>
</g>
<g>
</g>
<g>
</g>
<g>
</g>
<g>
</g>
<g>
</g>
<g>
</g>
<g>
</g>
<g>
</g>
<g>
</g>
<g>
</g>
<g>
</g>
<g>
</g>
<g>
</g>
<g>
</g>
<g>
</g>
</svg>
